<?xml version="1.0" encoding="UTF-8" standalone="no"?>
<svg width="20px" height="20px" viewBox="0 0 20 20" version="1.1" xmlns="http://www.w3.org/2000/svg" xmlns:xlink="http://www.w3.org/1999/xlink" xmlns:sketch="http://www.bohemiancoding.com/sketch/ns">
    <!-- Generator: Sketch 3.3.2 (12043) - http://www.bohemiancoding.com/sketch -->
    <title>icn_autogenerate copy 8</title>
    <desc>Created with Sketch.</desc>
    <defs></defs>
    <g id="Styleguide" stroke="none" stroke-width="1" fill="none" fill-rule="evenodd" sketch:type="MSPage">
        <g id="Article-Creation---Cold" sketch:type="MSArtboardGroup" transform="translate(-142.000000, -2837.000000)" fill="#000000">
            <g id="Images" sketch:type="MSLayerGroup" transform="translate(142.000000, 2283.000000)">
                <g id="icn_autogenerate-copy-8" transform="translate(0.000000, 554.000000)" sketch:type="MSShapeGroup">
                    <path d="M2.385,20 C1.736,20 0.657,18.998 0.685,18.447 C0.695,18.241 0.879,18.012 1.041,17.851 C4.394,14.484 7.756,11.127 11.115,7.767 C11.983,6.899 12.852,6.031 13.719,5.164 C14.236,4.646 14.74,4.644 15.27,5.171 C15.43,5.331 15.572,5.513 15.703,5.698 C16.068,6.214 16.047,6.418 15.595,6.87 C11.33,11.135 7.065,15.4 2.798,19.662 C2.656,19.805 2.485,19.92 2.385,20 L2.385,20 Z M11.745,9.821 C12.795,8.773 13.82,7.746 14.848,6.722 C15.143,6.428 15.001,6.169 14.766,5.956 C14.563,5.772 14.338,5.461 14.017,5.778 C12.959,6.822 11.912,7.876 10.835,8.953 C11.141,9.245 11.418,9.508 11.745,9.821 L11.745,9.821 Z" id="Fill-1"></path>
                    <path d="M15.759,3.062 C14.426,2.62 13.549,3.137 13.005,4.448 C13.418,3.054 12.999,2.105 11.624,1.537 C13.116,1.986 13.987,1.377 14.479,0 C14.479,0.67 14.32,1.309 14.523,1.798 C14.723,2.277 15.289,2.604 15.759,3.062" id="Fill-2"></path>
                    <path d="M16.969,4.392 C17.682,5.15 18.43,5.245 19.316,4.68 C18.638,5.456 18.631,6.232 19.184,7.004 C18.771,6.808 18.389,6.501 17.984,6.467 C17.589,6.433 17.17,6.676 16.732,6.806 C17.482,6.099 17.572,5.292 16.969,4.392" id="Fill-3"></path>
                    <path d="M11.389,3.385 C11.079,3.9 10.985,4.394 11.394,4.919 C10.87,4.565 10.378,4.562 9.866,4.932 C10.218,4.413 10.22,3.919 9.868,3.402 C10.387,3.762 10.877,3.782 11.389,3.385" id="Fill-4"></path>
                    <path d="M15.187,8.825 C15.353,8.62 15.598,8.318 15.797,8.071 C16.002,8.224 16.291,8.441 16.537,8.627 C16.373,8.844 16.154,9.133 15.977,9.37 C15.735,9.204 15.414,8.982 15.187,8.825" id="Fill-5"></path>
                </g>
            </g>
        </g>
    </g>
</svg>